<svg width="151" height="33" viewBox="0 0 151 33" fill="none" xmlns="http://www.w3.org/2000/svg">
<path d="M15.8348 1.73083C15.8308 1.74909 15.8328 1.76818 15.8406 1.78517H14.748C14.7529 1.7675 14.7549 1.74914 14.7538 1.73083H15.8348Z" fill="white"/>
<path d="M0.604492 24.6525C0.675912 24.1126 0.815969 23.5839 1.02128 23.0793C1.43044 21.9097 2.0712 20.8342 2.9054 19.9168C3.7396 18.9994 4.75021 18.2589 5.87706 17.7393C7.58713 16.9647 9.50318 16.7658 11.3363 17.1728C12.5643 17.3945 13.809 17.5115 15.0568 17.5224C15.7632 17.4901 16.4661 17.6395 17.098 17.9562C17.3167 18.0812 17.511 18.2446 17.6714 18.4385C17.798 18.5955 17.768 18.6618 17.5928 18.7397C16.8166 19.07 16.0037 19.3067 15.1713 19.4447C13.7359 19.6457 12.29 19.7624 10.8409 19.7943C10.7276 19.7935 10.615 19.813 10.5086 19.852C10.8831 19.8883 11.26 19.9305 11.6317 19.9483C13.3663 20.1191 15.1174 19.9885 16.8072 19.5624C18.5065 19.1193 20.0039 18.1117 21.0525 16.7055C21.3649 16.1988 21.8014 15.7799 22.3208 15.4882C22.7483 15.2784 23.2364 15.2269 23.6984 15.3428C23.825 15.3728 23.8677 15.4149 23.8013 15.5476C23.0371 17.2096 22.0449 18.7573 20.8531 20.1462C19.6026 21.4836 17.9637 22.3963 16.1667 22.7562C14.7092 23.059 13.2227 23.2005 11.7341 23.1779C10.2363 23.1722 8.73851 23.0995 7.23495 23.1837C5.38326 23.2195 3.54647 23.5221 1.78144 24.082C1.37115 24.2328 0.976893 24.4239 0.604492 24.6525Z" fill="#00A6E0"/>
<path d="M9.57861 12.7668C11.4747 11.036 13.3106 9.36755 15.1408 7.68583C15.3142 7.52314 15.3824 7.6616 15.4732 7.75218C16.9588 9.10217 18.4445 10.4562 19.9301 11.8143C20.2561 12.1097 20.5822 12.4108 20.9747 12.7668C20.5035 12.7668 20.111 12.7847 19.7185 12.761C19.4347 12.7431 19.3439 12.8152 19.3503 13.1164C19.3682 14.4243 19.3503 15.7264 19.3624 17.0342C19.3786 17.1471 19.3601 17.2622 19.3094 17.3643C19.2588 17.4665 19.1783 17.5509 19.0786 17.6066C19.0216 17.6475 18.9672 17.6918 18.9156 17.7392C18.4445 18.0889 18.4531 18.0889 18.0277 17.6908C17.4619 17.167 16.7324 16.854 15.9622 16.8046C15.0078 16.7204 14.0546 16.6783 13.0996 16.6241C12.5562 16.5941 12.0244 16.4792 11.4874 16.4129C11.2637 16.3829 11.1793 16.3044 11.1793 16.0575C11.1972 15.0508 11.1793 14.0504 11.1914 13.0437C11.1914 12.8204 11.1371 12.7483 10.9076 12.7604C10.4966 12.7783 10.074 12.7668 9.57861 12.7668ZM16.953 14.5206C17.2126 14.5206 17.4785 14.5148 17.7381 14.5206C17.8832 14.5264 17.9554 14.4964 17.9496 14.3279C17.9375 13.8277 17.9438 13.3275 17.9496 12.821C17.9496 12.6883 17.9254 12.622 17.7687 12.6283C17.2432 12.6341 16.7241 12.6341 16.1987 12.6283C16.0536 12.6283 16.0114 12.6768 16.0114 12.821C16.0171 13.3212 16.0235 13.8277 16.0114 14.3279C16.0056 14.497 16.0778 14.527 16.2287 14.5206C16.4692 14.5143 16.7108 14.5206 16.953 14.5206ZM13.5829 12.6341C13.3233 12.6341 13.0574 12.6398 12.7979 12.6341C12.6528 12.6283 12.6048 12.6762 12.6106 12.821C12.6164 13.3212 12.6164 13.8214 12.6106 14.3279C12.6048 14.497 12.6684 14.5269 12.8222 14.5269C13.3233 14.5212 13.8245 14.5212 14.3321 14.5269C14.4893 14.5269 14.5373 14.4785 14.5373 14.3221C14.5315 13.882 14.5194 13.436 14.5431 12.9952C14.561 12.7177 14.4945 12.5914 14.1928 12.6335C13.9895 12.6458 13.7856 12.646 13.5823 12.6341H13.5829Z" fill="#4FA800"/>
<path d="M14.7419 1.78528H15.835C19.7185 2.13143 22.4828 4.07565 24.0436 7.63178C25.0101 9.83792 24.9616 13.6952 24.0858 14.575C24.6234 11.1337 23.6632 8.2162 21.0058 5.94371C20.1012 5.16016 19.0421 4.5746 17.8968 4.22482C16.7514 3.87503 15.5453 3.76879 14.3563 3.91296C13.097 4.04517 11.8797 4.4408 10.7839 5.07406C9.6881 5.70731 8.73834 6.56396 7.99654 7.58816C7.25475 8.61235 6.73759 9.78109 6.47879 11.0182C6.21999 12.2552 6.22536 13.5328 6.49455 14.7677C5.99122 13.5878 5.74441 12.3148 5.77042 11.0327C5.79642 9.75062 6.09466 8.48862 6.64542 7.33005C8.25014 3.94296 10.9856 2.09855 14.7419 1.78528Z" fill="#00A6E0"/>
<path d="M37.9554 8.69917C36.1325 8.69917 34.7084 9.41222 33.74 10.6101V4.1642C33.74 3.28002 33.0279 2.53845 32.145 2.53845C31.262 2.53845 30.5215 3.28002 30.5215 4.1642V21.0776C30.5215 21.9618 31.262 22.6749 32.145 22.6749C33.0279 22.6749 33.74 21.9618 33.74 21.0776V14.974C33.74 13.063 35.1357 11.6654 36.9016 11.6654C38.5536 11.6654 39.9777 12.8634 39.9777 14.8314V21.0776C39.9777 21.9618 40.6897 22.6749 41.6012 22.6749C42.4841 22.6749 43.1962 21.9618 43.1962 21.0776V14.3465C43.1962 10.7813 41.06 8.69917 37.9554 8.69917Z" fill="#00A6E0"/>
<path d="M53.2038 22.846C57.0489 22.846 60.182 19.9083 60.182 15.7726C60.182 11.6369 57.0489 8.69917 53.2038 8.69917C49.3302 8.69917 46.1971 11.6369 46.1971 15.7726C46.1971 19.9083 49.3302 22.846 53.2038 22.846ZM53.2038 19.8797C51.1531 19.8797 49.5296 18.1684 49.5296 15.7726C49.5296 13.3768 51.1531 11.6654 53.2038 11.6654C55.2261 11.6654 56.8496 13.3768 56.8496 15.7726C56.8496 18.1684 55.2261 19.8797 53.2038 19.8797Z" fill="#00A6E0"/>
<path d="M80.0895 8.69917C77.8964 8.69917 76.1874 9.64039 75.1905 11.1235C74.3076 9.55483 72.7126 8.69917 70.7188 8.69917C68.8959 8.69917 67.4718 9.41222 66.5034 10.6101V10.4675C66.5034 9.58335 65.7913 8.8703 64.9083 8.8703C64.0254 8.8703 63.2848 9.58335 63.2848 10.4675V21.0776C63.2848 21.9618 64.0254 22.6749 64.9083 22.6749C65.7913 22.6749 66.5034 21.9618 66.5034 21.0776V14.974C66.5034 13.063 67.899 11.6654 69.6649 11.6654C71.3169 11.6654 72.741 12.8634 72.741 14.8314V21.0776C72.741 21.9618 73.4531 22.6749 74.3645 22.6749C75.2475 22.6749 75.9596 21.9618 75.9596 21.0776V14.974C75.9596 13.063 77.3552 11.6654 79.1211 11.6654C80.7731 11.6654 82.1972 12.8634 82.1972 14.8314V21.0776C82.1972 21.9618 82.9093 22.6749 83.8207 22.6749C84.7037 22.6749 85.4158 21.9618 85.4158 21.0776V14.3465C85.3873 10.6672 83.2226 8.69917 80.0895 8.69917Z" fill="#00A6E0"/>
<path d="M90.1007 22.6749H99.2436C100.07 22.6749 100.725 22.0189 100.725 21.1917C100.725 20.3931 100.07 19.7086 99.2436 19.7086H93.1198L100.383 11.6369C100.611 11.3802 100.753 11.095 100.782 10.7813C100.896 10.2393 100.696 9.66891 100.269 9.29813C99.9272 8.98439 99.4999 8.8703 99.0727 8.8703H90.357C89.531 8.8703 88.8759 9.55483 88.8759 10.3534C88.8759 11.1806 89.531 11.8366 90.357 11.8366H96.082L88.819 19.9368C88.5342 20.222 88.3917 20.5928 88.3633 20.9636C88.3348 21.4199 88.5057 21.9048 88.9044 22.247C89.2177 22.5608 89.6735 22.7034 90.1007 22.6749Z" fill="#00A6E0"/>
<path d="M111.56 8.69929C109.738 8.69929 108.313 9.41234 107.345 10.6103V4.16432C107.345 3.28014 106.633 2.53857 105.75 2.53857C104.867 2.53857 104.126 3.28014 104.126 4.16432V21.0778C104.126 21.9619 104.867 22.675 105.75 22.675C106.633 22.675 107.345 21.9619 107.345 21.0778V14.9741C107.345 13.0631 108.741 11.6656 110.507 11.6656C112.159 11.6656 113.583 12.8635 113.583 14.8315V21.0778C113.583 21.9619 114.295 22.675 115.206 22.675C116.089 22.675 116.801 21.9619 116.801 21.0778V14.3466C116.801 10.7814 114.665 8.69929 111.56 8.69929Z" fill="#4FA800"/>
<path d="M131.167 8.87042C130.255 8.87042 129.543 9.61199 129.543 10.4962V16.5998C129.543 18.5108 128.147 19.8799 126.382 19.8799C124.73 19.8799 123.305 18.7105 123.305 16.7424V10.4962C123.305 9.58347 122.593 8.87042 121.71 8.87042C120.827 8.87042 120.087 9.61199 120.087 10.4962V17.2273C120.087 20.7926 122.252 22.8461 125.328 22.8461C127.151 22.8461 128.603 22.1616 129.543 20.9637V21.0778C129.543 21.9619 130.255 22.675 131.167 22.675C132.05 22.675 132.762 21.9619 132.762 21.0778V10.4962C132.762 9.61199 132.05 8.87042 131.167 8.87042Z" fill="#4FA800"/>
<path d="M143.801 8.69929C142.12 8.69929 140.611 9.38382 139.5 10.5532V4.19284C139.5 3.28014 138.759 2.53857 137.876 2.53857C136.965 2.53857 136.224 3.28014 136.224 4.19284V21.0492C136.224 21.9619 136.965 22.675 137.876 22.675C138.759 22.675 139.5 21.9619 139.5 21.0492V21.0207C140.611 22.1901 142.12 22.8461 143.801 22.8461C147.247 22.8461 150.067 19.9084 150.067 15.7727C150.067 11.637 147.247 8.69929 143.801 8.69929ZM143.06 19.8799C141.038 19.8799 139.386 18.1685 139.386 15.7727C139.386 13.3769 141.038 11.6656 143.06 11.6656C145.082 11.6656 146.734 13.3769 146.734 15.7727C146.734 18.1685 145.082 19.8799 143.06 19.8799Z" fill="#4FA800"/>
<path d="M32.998 29.7992L34.3448 26.9893H35.4704L33.5085 30.7359V32.9187H32.4874V30.7359L30.5215 26.9893H31.6512L32.998 29.7992Z" fill="#33495E"/>
<path d="M40.8212 30.1087C40.8212 30.6897 40.7221 31.2001 40.5237 31.6399C40.3254 32.077 40.0413 32.4137 39.6714 32.6499C39.3043 32.8834 38.8808 33.0001 38.401 33.0001C37.9266 33.0001 37.5032 32.8834 37.1306 32.6499C36.7608 32.4137 36.474 32.0784 36.2703 31.644C36.0693 31.2096 35.9674 30.7087 35.9648 30.1413V29.8074C35.9648 29.2291 36.0653 28.7187 36.2663 28.2762C36.47 27.8336 36.7554 27.4956 37.1226 27.2621C37.4925 27.0259 37.9159 26.9078 38.393 26.9078C38.8701 26.9078 39.2922 27.0246 39.6594 27.2581C40.0292 27.4888 40.3147 27.8228 40.5157 28.2599C40.7167 28.6942 40.8186 29.2006 40.8212 29.7789V30.1087ZM39.8041 29.7992C39.8041 29.1422 39.6808 28.6386 39.4342 28.2884C39.1903 27.9381 38.8433 27.763 38.393 27.763C37.9534 27.763 37.609 27.9381 37.3598 28.2884C37.1132 28.6359 36.9872 29.1286 36.9819 29.7666V30.1087C36.9819 30.7603 37.1065 31.2639 37.3558 31.6196C37.6077 31.9752 37.9561 32.153 38.401 32.153C38.8513 32.153 39.197 31.9793 39.4383 31.6318C39.6822 31.2843 39.8041 30.7766 39.8041 30.1087V29.7992Z" fill="#33495E"/>
<path d="M46.2806 26.9893V30.9517C46.2806 31.5816 46.0809 32.0811 45.6816 32.4503C45.2849 32.8168 44.7556 33.0001 44.0936 33.0001C43.4235 33.0001 42.8915 32.8196 42.4975 32.4585C42.1035 32.0947 41.9065 31.5911 41.9065 30.9476V26.9893H42.9196V30.9558C42.9196 31.3521 43.0188 31.6549 43.2171 31.8639C43.4155 32.073 43.7076 32.1775 44.0936 32.1775C44.8762 32.1775 45.2675 31.7594 45.2675 30.9232V26.9893H46.2806Z" fill="#33495E"/>
<path d="M49.6856 30.6341H48.5519V32.9187H47.5347V26.9893H49.5931C50.2685 26.9893 50.7898 27.1427 51.157 27.4495C51.5242 27.7562 51.7078 28.2001 51.7078 28.7811C51.7078 29.1775 51.6126 29.5101 51.4223 29.7789C51.2347 30.0449 50.9721 30.2499 50.6344 30.3938L51.949 32.8657V32.9187H50.8595L49.6856 30.6341ZM48.5519 29.8074H49.5971C49.9402 29.8074 50.2082 29.7205 50.4012 29.5467C50.5942 29.3703 50.6907 29.13 50.6907 28.8259C50.6907 28.5083 50.6009 28.2626 50.4213 28.0888C50.2444 27.9151 49.9791 27.8255 49.6253 27.82H48.5519V29.8074Z" fill="#33495E"/>
<path d="M58.2844 30.7155V32.9187H57.2673V26.9893H59.5066C60.1606 26.9893 60.6792 27.1617 61.0624 27.5065C61.4484 27.8513 61.6414 28.3074 61.6414 28.8748C61.6414 29.4558 61.4524 29.9078 61.0745 30.2309C60.6993 30.554 60.1726 30.7155 59.4945 30.7155H58.2844ZM58.2844 29.8888H59.5066C59.8684 29.8888 60.1445 29.8033 60.3348 29.6323C60.5251 29.4585 60.6202 29.2087 60.6202 28.8829C60.6202 28.5626 60.5237 28.3074 60.3308 28.1173C60.1378 27.9246 59.8724 27.8255 59.5347 27.82H58.2844V29.8888Z" fill="#33495E"/>
<path d="M64.8494 30.6341H63.7157V32.9187H62.6985V26.9893H64.7569C65.4323 26.9893 65.9536 27.1427 66.3208 27.4495C66.688 27.7562 66.8716 28.2001 66.8716 28.7811C66.8716 29.1775 66.7764 29.5101 66.5861 29.7789C66.3985 30.0449 66.1359 30.2499 65.7982 30.3938L67.1128 32.8657V32.9187H66.0233L64.8494 30.6341ZM63.7157 29.8074H64.7609C65.104 29.8074 65.372 29.7205 65.565 29.5467C65.758 29.3703 65.8544 29.13 65.8544 28.8259C65.8544 28.5083 65.7647 28.2626 65.5851 28.0888C65.4082 27.9151 65.1429 27.8255 64.7891 27.82H63.7157V29.8074Z" fill="#33495E"/>
<path d="M72.6726 30.1087C72.6726 30.6897 72.5735 31.2001 72.3751 31.6399C72.1768 32.077 71.8927 32.4137 71.5228 32.6499C71.1557 32.8834 70.7322 33.0001 70.2524 33.0001C69.778 33.0001 69.3546 32.8834 68.982 32.6499C68.6122 32.4137 68.3254 32.0784 68.1217 31.644C67.9207 31.2096 67.8188 30.7087 67.8162 30.1413V29.8074C67.8162 29.2291 67.9167 28.7187 68.1177 28.2762C68.3214 27.8336 68.6068 27.4956 68.974 27.2621C69.3439 27.0259 69.7673 26.9078 70.2444 26.9078C70.7215 26.9078 71.1436 27.0246 71.5108 27.2581C71.8806 27.4888 72.1661 27.8228 72.3671 28.2599C72.5681 28.6942 72.67 29.2006 72.6726 29.7789V30.1087ZM71.6555 29.7992C71.6555 29.1422 71.5322 28.6386 71.2856 28.2884C71.0418 27.9381 70.6947 27.763 70.2444 27.763C69.8049 27.763 69.4604 27.9381 69.2112 28.2884C68.9646 28.6359 68.8386 29.1286 68.8333 29.7666V30.1087C68.8333 30.7603 68.9579 31.2639 69.2072 31.6196C69.4591 31.9752 69.8075 32.153 70.2524 32.153C70.7027 32.153 71.0485 31.9793 71.2897 31.6318C71.5336 31.2843 71.6555 30.7766 71.6555 30.1087V29.7992Z" fill="#33495E"/>
<path d="M74.8675 30.7155V32.9187H73.8504V26.9893H76.0897C76.7437 26.9893 77.2623 27.1617 77.6455 27.5065C78.0315 27.8513 78.2245 28.3074 78.2245 28.8748C78.2245 29.4558 78.0355 29.9078 77.6576 30.2309C77.2824 30.554 76.7557 30.7155 76.0776 30.7155H74.8675ZM74.8675 29.8888H76.0897C76.4515 29.8888 76.7276 29.8033 76.9179 29.6323C77.1082 29.4585 77.2033 29.2087 77.2033 28.8829C77.2033 28.5626 77.1068 28.3074 76.9139 28.1173C76.7209 27.9246 76.4555 27.8255 76.1178 27.82H74.8675V29.8888Z" fill="#33495E"/>
<path d="M82.7029 30.2716H80.2988V32.096H83.1089V32.9187H79.2816V26.9893H83.0808V27.82H80.2988V29.4571H82.7029V30.2716Z" fill="#33495E"/>
<path d="M86.2526 30.6341H85.1189V32.9187H84.1018V26.9893H86.1601C86.8355 26.9893 87.3568 27.1427 87.724 27.4495C88.0912 27.7562 88.2748 28.2001 88.2748 28.7811C88.2748 29.1775 88.1796 29.5101 87.9894 29.7789C87.8017 30.0449 87.5391 30.2499 87.2014 30.3938L88.516 32.8657V32.9187H87.4265L86.2526 30.6341ZM85.1189 29.8074H86.1642C86.5072 29.8074 86.7752 29.7205 86.9682 29.5467C87.1612 29.3703 87.2577 29.13 87.2577 28.8259C87.2577 28.5083 87.1679 28.2626 86.9883 28.0888C86.8114 27.9151 86.5461 27.8255 86.1923 27.82H85.1189V29.8074Z" fill="#33495E"/>
<path d="M93.4326 27.82H91.6074V32.9187H90.5983V27.82H88.7892V26.9893H93.4326V27.82Z" fill="#33495E"/>
<path d="M96.3431 29.7992L97.6899 26.9893H98.8156L96.8537 30.7359V32.9187H95.8326V30.7359L93.8667 26.9893H94.9964L96.3431 29.7992Z" fill="#33495E"/>
<path d="M108.512 30.9884C108.453 31.6209 108.223 32.115 107.82 32.4707C107.418 32.8236 106.884 33.0001 106.216 33.0001C105.75 33.0001 105.339 32.8888 104.982 32.6662C104.628 32.4408 104.355 32.1218 104.162 31.7092C103.969 31.2965 103.869 30.8173 103.861 30.2716V29.7178C103.861 29.1585 103.958 28.6657 104.154 28.2395C104.35 27.8133 104.63 27.4848 104.994 27.254C105.361 27.0232 105.785 26.9078 106.265 26.9078C106.911 26.9078 107.431 27.0857 107.825 27.4413C108.219 27.797 108.448 28.2992 108.512 28.9481H107.499C107.451 28.5219 107.327 28.2151 107.129 28.0277C106.933 27.8377 106.645 27.7427 106.265 27.7427C105.822 27.7427 105.482 27.9069 105.244 28.2354C105.008 28.5612 104.887 29.0404 104.882 29.673V30.1983C104.882 30.839 104.994 31.3277 105.219 31.6644C105.447 32.001 105.78 32.1693 106.216 32.1693C106.616 32.1693 106.916 32.0784 107.117 31.8965C107.318 31.7146 107.445 31.4119 107.499 30.9884H108.512Z" fill="#33495E"/>
<path d="M113.871 26.9893V30.9517C113.871 31.5816 113.671 32.0811 113.272 32.4503C112.875 32.8168 112.346 33.0001 111.684 33.0001C111.014 33.0001 110.482 32.8196 110.088 32.4585C109.694 32.0947 109.497 31.5911 109.497 30.9476V26.9893H110.51V30.9558C110.51 31.3521 110.609 31.6549 110.807 31.8639C111.006 32.073 111.298 32.1775 111.684 32.1775C112.466 32.1775 112.858 31.7594 112.858 30.9232V26.9893H113.871Z" fill="#33495E"/>
<path d="M118.184 31.3915C118.184 31.1309 118.093 30.93 117.911 30.7888C117.731 30.6476 117.406 30.5051 116.934 30.3612C116.462 30.2173 116.087 30.0571 115.808 29.8807C115.275 29.5413 115.008 29.0988 115.008 28.5531C115.008 28.0752 115.2 27.6816 115.583 27.3721C115.969 27.0626 116.469 26.9078 117.083 26.9078C117.49 26.9078 117.853 26.9839 118.172 27.1359C118.491 27.2879 118.742 27.5051 118.924 27.7875C119.106 28.0671 119.198 28.378 119.198 28.72H118.184C118.184 28.4105 118.088 28.1689 117.895 27.9952C117.705 27.8187 117.431 27.7305 117.075 27.7305C116.742 27.7305 116.484 27.8024 116.299 27.9463C116.117 28.0902 116.026 28.2911 116.026 28.549C116.026 28.7662 116.125 28.9481 116.323 29.0947C116.521 29.2386 116.848 29.3798 117.304 29.5182C117.76 29.654 118.125 29.8101 118.402 29.9865C118.678 30.1603 118.88 30.3612 119.009 30.5893C119.137 30.8146 119.202 31.0793 119.202 31.3834C119.202 31.8775 119.014 32.2711 118.639 32.5644C118.266 32.8549 117.76 33.0001 117.119 33.0001C116.696 33.0001 116.306 32.9214 115.949 32.7639C115.595 32.6037 115.319 32.3838 115.121 32.1042C114.925 31.8245 114.827 31.4988 114.827 31.1268H115.845C115.845 31.4635 115.955 31.7241 116.174 31.9087C116.394 32.0933 116.709 32.1856 117.119 32.1856C117.473 32.1856 117.738 32.1137 117.915 31.9698C118.095 31.8232 118.184 31.6304 118.184 31.3915Z" fill="#33495E"/>
<path d="M124.488 27.82H122.663V32.9187H121.654V27.82H119.845V26.9893H124.488V27.82Z" fill="#33495E"/>
<path d="M129.984 30.1087C129.984 30.6897 129.884 31.2001 129.686 31.6399C129.488 32.077 129.204 32.4137 128.834 32.6499C128.467 32.8834 128.043 33.0001 127.563 33.0001C127.089 33.0001 126.666 32.8834 126.293 32.6499C125.923 32.4137 125.636 32.0784 125.433 31.644C125.232 31.2096 125.13 30.7087 125.127 30.1413V29.8074C125.127 29.2291 125.228 28.7187 125.429 28.2762C125.632 27.8336 125.918 27.4956 126.285 27.2621C126.655 27.0259 127.078 26.9078 127.555 26.9078C128.032 26.9078 128.455 27.0246 128.822 27.2581C129.192 27.4888 129.477 27.8228 129.678 28.2599C129.879 28.6942 129.981 29.2006 129.984 29.7789V30.1087ZM128.966 29.7992C128.966 29.1422 128.843 28.6386 128.597 28.2884C128.353 27.9381 128.006 27.763 127.555 27.763C127.116 27.763 126.771 27.9381 126.522 28.2884C126.276 28.6359 126.15 29.1286 126.144 29.7666V30.1087C126.144 30.7603 126.269 31.2639 126.518 31.6196C126.77 31.9752 127.118 32.153 127.563 32.153C128.014 32.153 128.359 31.9793 128.601 31.6318C128.844 31.2843 128.966 30.7766 128.966 30.1087V29.7992Z" fill="#33495E"/>
<path d="M131.161 32.9187V26.9893H132.89C133.407 26.9893 133.866 27.106 134.265 27.3395C134.667 27.573 134.978 27.9042 135.198 28.3332C135.417 28.7621 135.527 29.2535 135.527 29.8074V30.1046C135.527 30.6666 135.416 31.1607 135.194 31.587C134.974 32.0132 134.659 32.3417 134.249 32.5725C133.842 32.8033 133.374 32.9187 132.846 32.9187H131.161ZM132.178 27.82V32.096H132.842C133.375 32.096 133.784 31.9277 134.068 31.5911C134.355 31.2517 134.501 30.7657 134.506 30.1332V29.8033C134.506 29.1599 134.368 28.6685 134.092 28.3291C133.816 27.9897 133.415 27.82 132.89 27.82H132.178Z" fill="#33495E"/>
<path d="M137.779 32.9187H136.765V26.9893H137.779V32.9187Z" fill="#33495E"/>
<path d="M142.542 31.5381H140.275L139.801 32.9187H138.743L140.954 26.9893H141.867L144.082 32.9187H143.021L142.542 31.5381ZM140.56 30.7074H142.257L141.409 28.2476L140.56 30.7074Z" fill="#33495E"/>
<path d="M149.558 32.9187H148.54L145.931 28.7119V32.9187H144.914V26.9893H145.931L148.548 31.2123V26.9893H149.558V32.9187Z" fill="#33495E"/>
</svg>
