<svg width="34" height="34" viewBox="0 0 34 34" fill="none" xmlns="http://www.w3.org/2000/svg">
<path d="M21.1676 2.31836C21.1621 2.34277 21.1649 2.36828 21.1753 2.391H19.7148C19.7214 2.36737 19.724 2.34283 19.7226 2.31836H21.1676Z" fill="white"/>
<path d="M0.80835 33.0194C0.90382 32.2962 1.09104 31.5881 1.36549 30.9122C1.91243 29.3456 2.76895 27.9051 3.88406 26.6763C4.99917 25.4476 6.35008 24.4557 7.85639 23.7598C10.1423 22.7222 12.7036 22.4559 15.154 23.001C16.7955 23.298 18.4593 23.4546 20.1273 23.4692C21.0716 23.4259 22.0111 23.626 22.8558 24.0503C23.1482 24.2177 23.4079 24.4366 23.6223 24.6963C23.7916 24.9065 23.7514 24.9954 23.5173 25.0997C22.4797 25.5421 21.393 25.8591 20.2803 26.044C18.3616 26.3132 16.4288 26.4696 14.4918 26.5122C14.3403 26.5111 14.1898 26.5373 14.0475 26.5895C14.5482 26.6382 15.052 26.6946 15.5489 26.7186C17.8675 26.9473 20.2082 26.7724 22.4671 26.2016C24.7387 25.6082 26.7403 24.2585 28.142 22.3751C28.5595 21.6964 29.143 21.1353 29.8374 20.7446C30.4087 20.4636 31.0613 20.3946 31.6788 20.5499C31.848 20.5901 31.9052 20.6465 31.8163 20.8242C30.7949 23.0503 29.4686 25.1233 27.8754 26.9836C26.2038 28.7748 24.0131 29.9974 21.6109 30.4794C19.6626 30.885 17.6755 31.0745 15.6857 31.0443C13.6835 31.0366 11.6814 30.9392 9.67153 31.052C7.19631 31.1 4.741 31.5053 2.38162 32.2552C1.83317 32.4571 1.30615 32.7131 0.80835 33.0194Z" fill="#99A4AF"/>
<path d="M12.8042 17.0995C15.3387 14.7814 17.7929 12.5466 20.2394 10.2941C20.4712 10.0762 20.5624 10.2617 20.6837 10.383C22.6696 12.1912 24.6555 14.0048 26.6414 15.8238C27.0772 16.2194 27.5131 16.6228 28.0377 17.0995C27.408 17.0995 26.8833 17.1235 26.3586 17.0918C25.9792 17.0679 25.8579 17.1645 25.8664 17.5678C25.8903 19.3196 25.8664 21.0636 25.8826 22.8154C25.9042 22.9665 25.8795 23.1207 25.8118 23.2575C25.7441 23.3943 25.6365 23.5075 25.5032 23.582C25.427 23.6367 25.3543 23.6961 25.2853 23.7597C24.6555 24.228 24.6671 24.228 24.0984 23.6948C23.3421 22.9932 22.3669 22.5739 21.3374 22.5079C20.0617 22.395 18.7874 22.3386 17.5109 22.266C16.7845 22.2258 16.0736 22.072 15.3557 21.9832C15.0567 21.943 14.9439 21.8379 14.9439 21.5072C14.9678 20.1588 14.9439 18.8189 14.9601 17.4704C14.9601 17.1714 14.8875 17.0748 14.5807 17.091C14.0313 17.115 13.4664 17.0995 12.8042 17.0995ZM22.6619 19.4486C23.0088 19.4486 23.3643 19.4409 23.7112 19.4486C23.9052 19.4564 24.0018 19.4162 23.9941 19.1905C23.9778 18.5206 23.9863 17.8506 23.9941 17.1722C23.9941 16.9944 23.9616 16.9056 23.7522 16.9141C23.0498 16.9218 22.3559 16.9218 21.6535 16.9141C21.4595 16.9141 21.4031 16.979 21.4031 17.1722C21.4108 17.8421 21.4193 18.5206 21.4031 19.1905C21.3954 19.417 21.492 19.4571 21.6937 19.4486C22.0151 19.4401 22.3381 19.4486 22.6619 19.4486ZM18.1569 16.9218C17.8099 16.9218 17.4545 16.9295 17.1075 16.9218C16.9136 16.9141 16.8494 16.9782 16.8572 17.1722C16.8649 17.8421 16.8649 18.5121 16.8572 19.1905C16.8494 19.417 16.9344 19.4571 17.14 19.4571C17.8099 19.4494 18.4799 19.4494 19.1583 19.4571C19.3685 19.4571 19.4327 19.3922 19.4327 19.1828C19.4249 18.5932 19.4087 17.9959 19.4404 17.4055C19.4643 17.0339 19.3755 16.8646 18.9721 16.921C18.7004 16.9375 18.4279 16.9377 18.1561 16.9218H18.1569Z" fill="#99A4AF"/>
<path d="M19.7061 2.39062H21.1674C26.3586 2.85426 30.0537 5.45835 32.1401 10.2214C33.4321 13.1764 33.3672 18.3428 32.1965 19.5212C32.9151 14.9119 31.6316 11.0042 28.0794 7.96044C26.8702 6.91096 25.4544 6.12666 23.9234 5.65815C22.3924 5.18965 20.7802 5.04735 19.1907 5.24044C17.5074 5.41753 15.8802 5.94744 14.4154 6.79562C12.9506 7.64381 11.681 8.79121 10.6894 10.163C9.69784 11.5348 9.00653 13.1002 8.66058 14.7572C8.31463 16.4141 8.32181 18.1253 8.68164 19.7793C8.00882 18.199 7.6789 16.4939 7.71367 14.7767C7.74844 13.0594 8.14709 11.3691 8.88332 9.81731C11.0284 5.28063 14.685 2.81022 19.7061 2.39062Z" fill="#99A4AF"/>
<path d="M21.1676 2.31836C21.1621 2.34277 21.1649 2.36828 21.1753 2.391H19.7148C19.7214 2.36737 19.724 2.34283 19.7226 2.31836H21.1676Z" fill="white"/>
<path d="M0.80835 33.0194C0.90382 32.2962 1.09104 31.5881 1.36549 30.9122C1.91243 29.3456 2.76895 27.9051 3.88406 26.6763C4.99917 25.4476 6.35008 24.4557 7.85639 23.7598C10.1423 22.7222 12.7036 22.4559 15.154 23.001C16.7955 23.298 18.4593 23.4546 20.1273 23.4692C21.0716 23.4259 22.0111 23.626 22.8558 24.0503C23.1482 24.2177 23.4079 24.4366 23.6223 24.6963C23.7916 24.9065 23.7514 24.9954 23.5173 25.0997C22.4797 25.5421 21.393 25.8591 20.2803 26.044C18.3616 26.3132 16.4288 26.4696 14.4918 26.5122C14.3403 26.5111 14.1898 26.5373 14.0475 26.5895C14.5482 26.6382 15.052 26.6946 15.5489 26.7186C17.8675 26.9473 20.2082 26.7724 22.4671 26.2016C24.7387 25.6082 26.7403 24.2585 28.142 22.3751C28.5595 21.6964 29.143 21.1353 29.8374 20.7446C30.4087 20.4636 31.0613 20.3946 31.6788 20.5499C31.848 20.5901 31.9052 20.6465 31.8163 20.8242C30.7949 23.0503 29.4686 25.1233 27.8754 26.9836C26.2038 28.7748 24.0131 29.9974 21.6109 30.4794C19.6626 30.885 17.6755 31.0745 15.6857 31.0443C13.6835 31.0366 11.6814 30.9392 9.67153 31.052C7.19631 31.1 4.741 31.5053 2.38162 32.2552C1.83317 32.4571 1.30615 32.7131 0.80835 33.0194Z" fill="#00A6E0"/>
<path d="M12.8042 17.0995C15.3387 14.7814 17.7929 12.5466 20.2394 10.2941C20.4712 10.0762 20.5624 10.2617 20.6837 10.383C22.6696 12.1912 24.6555 14.0048 26.6414 15.8238C27.0772 16.2194 27.5131 16.6228 28.0377 17.0995C27.408 17.0995 26.8833 17.1235 26.3586 17.0918C25.9792 17.0679 25.8579 17.1645 25.8664 17.5678C25.8903 19.3196 25.8664 21.0636 25.8826 22.8154C25.9042 22.9665 25.8795 23.1207 25.8118 23.2575C25.7441 23.3943 25.6365 23.5075 25.5032 23.582C25.427 23.6367 25.3543 23.6961 25.2853 23.7597C24.6555 24.228 24.6671 24.228 24.0984 23.6948C23.3421 22.9932 22.3669 22.5739 21.3374 22.5079C20.0617 22.395 18.7874 22.3386 17.5109 22.266C16.7845 22.2258 16.0736 22.072 15.3557 21.9832C15.0567 21.943 14.9439 21.8379 14.9439 21.5072C14.9678 20.1588 14.9439 18.8189 14.9601 17.4704C14.9601 17.1714 14.8875 17.0748 14.5807 17.091C14.0313 17.115 13.4664 17.0995 12.8042 17.0995ZM22.6619 19.4486C23.0088 19.4486 23.3643 19.4409 23.7112 19.4486C23.9052 19.4564 24.0018 19.4162 23.9941 19.1905C23.9778 18.5206 23.9863 17.8506 23.9941 17.1722C23.9941 16.9944 23.9616 16.9056 23.7522 16.9141C23.0498 16.9218 22.3559 16.9218 21.6535 16.9141C21.4595 16.9141 21.4031 16.979 21.4031 17.1722C21.4108 17.8421 21.4193 18.5206 21.4031 19.1905C21.3954 19.417 21.492 19.4571 21.6937 19.4486C22.0151 19.4401 22.3381 19.4486 22.6619 19.4486ZM18.1569 16.9218C17.8099 16.9218 17.4545 16.9295 17.1075 16.9218C16.9136 16.9141 16.8494 16.9782 16.8572 17.1722C16.8649 17.8421 16.8649 18.5121 16.8572 19.1905C16.8494 19.417 16.9344 19.4571 17.14 19.4571C17.8099 19.4494 18.4799 19.4494 19.1583 19.4571C19.3685 19.4571 19.4327 19.3922 19.4327 19.1828C19.4249 18.5932 19.4087 17.9959 19.4404 17.4055C19.4643 17.0339 19.3755 16.8646 18.9721 16.921C18.7004 16.9375 18.4279 16.9377 18.1561 16.9218H18.1569Z" fill="#4FA800"/>
<path d="M19.7061 2.39062H21.1674C26.3586 2.85426 30.0537 5.45835 32.1401 10.2214C33.4321 13.1764 33.3672 18.3428 32.1965 19.5212C32.9151 14.9119 31.6316 11.0042 28.0794 7.96044C26.8702 6.91096 25.4544 6.12666 23.9234 5.65815C22.3924 5.18965 20.7802 5.04735 19.1907 5.24044C17.5074 5.41753 15.8802 5.94744 14.4154 6.79562C12.9506 7.64381 11.681 8.79121 10.6894 10.163C9.69784 11.5348 9.00653 13.1002 8.66058 14.7572C8.31463 16.4141 8.32181 18.1253 8.68164 19.7793C8.00882 18.199 7.6789 16.4939 7.71367 14.7767C7.74844 13.0594 8.14709 11.3691 8.88332 9.81731C11.0284 5.28063 14.685 2.81022 19.7061 2.39062Z" fill="#00A6E0"/>
</svg>
