<svg width="4096" height="523" viewBox="0 0 4096 523" fill="none" xmlns="http://www.w3.org/2000/svg">
    <rect width="4096" height="522.667" fill="url(#paint0_linear)"/>
    <rect width="4096" height="522.667" fill="black" fill-opacity="0.05"/>
    <mask id="mask0" maskUnits="userSpaceOnUse" x="0" y="0" width="4096" height="523">
        <rect width="4096" height="522.667" fill="url(#paint1_linear)"/>
    </mask>
    <g mask="url(#mask0)">
        <g opacity="0.18">
            <path d="M12.0996 128.619L8.19604 972.294L180.343 445.485L12.0996 128.619Z" fill="#A4ACB7"/>
            <path d="M0 -925L12.101 128.619L323.605 -493.016L0 -925Z" fill="#8D95A0"/>
            <path d="M180.343 445.484L8.19604 972.294L380.985 951.611L180.343 445.484Z" fill="#9498A3"/>
            <path d="M180.344 445.484L380.987 951.612L471.159 531.725L180.344 445.484Z" fill="#A0A6B2"/>
            <path d="M323.603 -493.017L12.0996 128.618L589.825 -142.981L323.603 -493.017Z" fill="#929AA5"/>
            <path d="M12.0996 128.618L180.343 445.484L589.825 -142.981L12.0996 128.618Z" fill="#9BA3AE"/>
            <path d="M180.344 445.484L471.159 531.725L589.827 -142.981L180.344 445.484Z" fill="#92969F"/>
            <path d="M471.159 531.725L815.062 1062.83L1175.75 482.556L471.159 531.725Z" fill="#9CA3AD"/>
            <path d="M589.827 -142.981L471.159 531.725L1175.75 482.556L589.827 -142.981Z" fill="#ACB4BF"/>
            <path d="M1175.75 482.556L815.061 1062.83L1240.94 1301.65L1175.75 482.556Z" fill="#848891"/>
            <path d="M1151.16 -501.211L589.825 -142.981L1327.21 70.8649L1151.16 -501.211Z" fill="#B3BBC8"/>
            <path d="M589.825 -142.981L1175.75 482.556L1327.21 70.8641L589.825 -142.981Z" fill="#A6AEBB"/>
            <path d="M1151.16 -501.211L1327.21 70.8649L1409.18 -241.709L1151.16 -501.211Z" fill="#B3BBC8"/>
            <path d="M1327.21 70.8643L1175.75 482.556L1654.72 120.423L1327.21 70.8643Z" fill="#B0B6C6"/>
            <path d="M1409.18 -241.708L1327.21 70.8649L1654.72 120.424L1409.18 -241.708Z" fill="#B0B6C6"/>
            <path d="M1175.75 482.556L1240.94 1301.65L1790.17 1120.19L1175.75 482.556Z" fill="#7B828C"/>
            <path d="M1654.72 120.424L1175.75 482.556L1790.17 1120.19L1654.72 120.424Z" fill="#9498A3"/>
            <path d="M1409.18 -241.709L1654.72 120.424L2113.38 -599.939L1409.18 -241.709Z" fill="#A6AEBB"/>
            <path d="M1654.72 120.424L1790.17 1120.19L2371.8 445.485L1654.72 120.424Z" fill="#888E9A"/>
            <path d="M2113.38 -599.939L1654.72 120.424L2396.39 -97.7141L2113.38 -599.939Z" fill="#9FA5B1"/>
            <path d="M1654.72 120.424L2371.8 445.485L2396.39 -97.7139L1654.72 120.424Z" fill="#979DA9"/>
            <path d="M2371.8 445.484L1790.17 1120.19L2638.02 1326.23L2371.8 445.484Z" fill="#9097A1"/>
            <path d="M2396.39 -97.7144L2371.8 445.485L2896.05 -221.417L2396.39 -97.7144Z" fill="#8B919D"/>
            <path d="M2371.8 445.484L2638.02 1326.23L3145.87 906.345L2371.8 445.484Z" fill="#9097A1"/>
            <path d="M3264.54 -249.903L2896.05 -221.417L3321.92 17.4036L3264.54 -249.903Z" fill="#89909A"/>
            <path d="M2896.05 -221.417L2371.8 445.485L3321.92 17.4032L2896.05 -221.417Z" fill="#8D95A0"/>
            <path d="M2371.8 445.485L3145.87 906.345L3321.92 17.4033L2371.8 445.485Z" fill="#B0B7C7"/>
            <path d="M3321.92 17.4033L3145.87 906.345L3784.89 692.5L3321.92 17.4033Z" fill="#A3A9B5"/>
            <path d="M3321.92 17.4033L3784.88 692.5L3899.65 91.5468L3321.92 17.4033Z" fill="#A8AFBF"/>
            <path d="M3264.54 -249.903L3321.92 17.4036L3899.65 91.5471L3264.54 -249.903Z" fill="#808692"/>
            <path d="M3641.23 -657.303L3264.54 -249.904L3899.65 91.5468L3641.23 -657.303Z" fill="#8C949F"/>
            <path d="M3641.23 -657.303L3899.65 91.5469L4096 -925L3641.23 -657.303Z" fill="#969EAB"/>
            <path d="M4096 -925L3899.65 91.5468L4096 1647V-925Z" fill="#9EA5AF"/>
            <path d="M3899.65 91.5469L3784.88 692.5L4096 1647L3899.65 91.5469Z" fill="#9CA3AD"/>
        </g>
    </g>
    <defs>
        <linearGradient id="paint0_linear" x1="-1.90735e-05" y1="261.333" x2="4096" y2="261.333" gradientUnits="userSpaceOnUse">
            <stop stop-color="#0084F8"/>
            <stop offset="0.791667" stop-color="#2DC8C3"/>
            <stop offset="0.915072" stop-color="#32CFBE"/>
        </linearGradient>
        <linearGradient id="paint1_linear" x1="-1.90735e-05" y1="261.333" x2="4096" y2="261.333" gradientUnits="userSpaceOnUse">
            <stop stop-color="#0084F8"/>
            <stop offset="0.791667" stop-color="#2DC8C3"/>
            <stop offset="0.915072" stop-color="#32CFBE"/>
        </linearGradient>
    </defs>
</svg>
